<svg width="366.8" height="93.001" viewBox="0 0 366.8 93.001" xmlns="http://www.w3.org/2000/svg"><g id="svgGroup" stroke-linecap="round" fill-rule="evenodd" font-size="9pt" stroke="#000" stroke-width="0.25mm" fill="#000" style="stroke:#000;stroke-width:0.25mm;fill:#000"><path d="M 39.7 76.2 L 25.7 76.2 L 25.7 21.5 L 39.1 19.8 L 39.1 32.2 Q 40.7 25.3 44.6 22.1 A 14.248 14.248 0 0 1 48.936 19.615 A 12.816 12.816 0 0 1 53.2 18.9 A 12.627 12.627 0 0 1 56.722 19.368 A 9.752 9.752 0 0 1 60.85 21.75 Q 63.8 24.6 64.6 31.1 A 24.663 24.663 0 0 1 65.936 27.277 Q 67.53 23.748 70.05 21.8 Q 73.8 18.9 78.4 18.9 A 12.28 12.28 0 0 1 82.148 19.442 A 9.522 9.522 0 0 1 87.1 23.1 A 12.734 12.734 0 0 1 88.746 26.427 Q 90.1 30.417 90.1 36.8 L 90.1 76.2 L 76.1 76.2 L 76.1 40.8 Q 76.1 36.74 75.484 34.558 A 6.623 6.623 0 0 0 75.05 33.4 A 4.339 4.339 0 0 0 74.259 32.27 Q 73.341 31.345 71.939 31.302 A 4.497 4.497 0 0 0 71.8 31.3 Q 69.383 31.3 67.648 33.993 A 12.519 12.519 0 0 0 66.85 35.45 A 16.589 16.589 0 0 0 65.78 38.577 Q 65.024 41.684 64.917 46.041 A 59.807 59.807 0 0 0 64.9 47.5 L 64.9 76.2 L 50.9 76.2 L 50.9 40.8 Q 50.9 36.74 50.284 34.558 A 6.623 6.623 0 0 0 49.85 33.4 A 4.339 4.339 0 0 0 49.059 32.27 Q 48.141 31.345 46.739 31.302 A 4.497 4.497 0 0 0 46.6 31.3 Q 44.183 31.3 42.448 33.993 A 12.519 12.519 0 0 0 41.65 35.45 A 16.589 16.589 0 0 0 40.58 38.577 Q 39.824 41.684 39.717 46.041 A 59.807 59.807 0 0 0 39.7 47.5 L 39.7 76.2 Z M 188.3 8.2 L 192 19.6 A 23.265 23.265 0 0 0 185.995 22.128 A 20.016 20.016 0 0 0 182.2 25.1 Q 184.6 27.5 185.95 30.65 Q 187.3 33.8 187.3 37.4 A 16.972 16.972 0 0 1 186.477 42.758 A 15.055 15.055 0 0 1 184.7 46.4 A 17.007 17.007 0 0 1 178.855 51.77 A 20.872 20.872 0 0 1 177.45 52.5 A 22.712 22.712 0 0 1 170.787 54.437 A 29.27 29.27 0 0 1 166.8 54.7 Q 165.1 54.7 163.5 54.5 Q 161.9 54.3 160.4 54 A 3.496 3.496 0 0 0 159.561 54.684 A 2.659 2.659 0 0 0 158.9 56.5 A 2.613 2.613 0 0 0 159.511 58.171 A 4.079 4.079 0 0 0 160.15 58.8 A 4.392 4.392 0 0 0 161.27 59.435 Q 162.37 59.875 164 60 L 174 60.9 Q 179.99 61.424 183.962 63.714 A 15.28 15.28 0 0 1 186.4 65.45 A 12.544 12.544 0 0 1 190.471 72.707 A 18.67 18.67 0 0 1 190.8 76.3 A 13.901 13.901 0 0 1 186.08 87.071 A 18.298 18.298 0 0 1 184.35 88.45 A 22.059 22.059 0 0 1 177.99 91.469 Q 175.152 92.33 171.745 92.707 A 51.44 51.44 0 0 1 166.1 93 Q 156.3 93 150.3 89.45 Q 144.3 85.9 144.3 79.8 A 10.045 10.045 0 0 1 144.985 76.054 A 9.397 9.397 0 0 1 146.35 73.7 A 10.778 10.778 0 0 1 149.924 70.8 A 14.411 14.411 0 0 1 152.1 69.9 A 10.159 10.159 0 0 1 149.236 67.434 Q 147.601 65.333 147.422 62.426 A 11.824 11.824 0 0 1 147.4 61.7 Q 147.4 55.3 154.7 51.7 A 17.901 17.901 0 0 1 149.493 47.258 A 17.101 17.101 0 0 1 148.4 45.7 A 15.343 15.343 0 0 1 146.102 37.687 A 18.234 18.234 0 0 1 146.1 37.4 A 17.077 17.077 0 0 1 147.305 30.944 A 16.176 16.176 0 0 1 148.8 28.1 A 18.755 18.755 0 0 1 155.336 22.065 A 22.389 22.389 0 0 1 156.2 21.6 A 22.032 22.032 0 0 1 164.1 19.332 A 27.093 27.093 0 0 1 166.8 19.2 Q 173 19.2 177.7 21.8 Q 178.7 17 181.5 13.2 Q 184.3 9.4 188.3 8.2 Z M 252.3 91.7 L 254.7 80.5 A 10.19 10.19 0 0 0 256.055 81.008 A 8.494 8.494 0 0 0 256.85 81.2 Q 257.9 81.4 259.1 81.4 A 8.371 8.371 0 0 0 261.595 81.044 A 6.77 6.77 0 0 0 264.35 79.4 Q 266.134 77.659 266.366 74.479 A 13.503 13.503 0 0 0 266.4 73.5 L 266.4 71.1 L 252.7 20.9 L 266.8 19 L 274.5 55.3 L 282.4 19.8 L 294.6 19.8 L 281 75.5 Q 279.192 82.817 275.161 87.17 A 18.874 18.874 0 0 1 273.8 88.5 A 17.458 17.458 0 0 1 265.939 92.412 A 25.608 25.608 0 0 1 260.3 93 A 37.485 37.485 0 0 1 258.619 92.965 Q 257.116 92.897 256 92.7 Q 254.3 92.4 252.3 91.7 Z M 344.6 76.2 L 329.9 77.6 L 326.7 62.5 L 310.6 62.5 L 308.3 76.2 L 293.8 76.2 L 309.1 2.1 L 327.2 0 L 344.6 76.2 Z M 122.6 42.6 L 122.6 37.5 A 14.056 14.056 0 0 0 122.38 34.95 A 10.169 10.169 0 0 0 121.45 32.15 A 3.923 3.923 0 0 0 118.628 30.041 A 6.788 6.788 0 0 0 117.2 29.9 A 4.717 4.717 0 0 0 115.416 30.223 Q 114.291 30.678 113.537 31.774 A 5.629 5.629 0 0 0 113.3 32.15 A 12.67 12.67 0 0 0 112.098 35.036 A 16.918 16.918 0 0 0 111.6 37.5 L 99.2 34.8 Q 100.5 26.8 105.55 22.85 A 18.566 18.566 0 0 1 115.88 18.962 A 23.588 23.588 0 0 1 117.6 18.9 A 28.679 28.679 0 0 1 122.96 19.367 Q 128.766 20.473 132 24.2 Q 136.6 29.5 136.6 39 L 136.6 61.4 A 64.724 64.724 0 0 0 136.932 68.053 A 58.337 58.337 0 0 0 137.05 69.1 Q 137.5 72.8 138.6 76.2 L 125 76.2 Q 123.6 72.6 123.5 68.9 Q 122 72.5 118.95 74.95 Q 115.976 77.339 111.243 77.398 A 19.327 19.327 0 0 1 111 77.4 Q 105 77.4 101.4 73.15 Q 98.231 69.408 97.852 63.148 A 28.922 28.922 0 0 1 97.8 61.4 Q 97.8 55.251 100.621 51.229 A 13.653 13.653 0 0 1 101.05 50.65 A 17.946 17.946 0 0 1 107.523 45.527 A 22.768 22.768 0 0 1 109.9 44.55 A 34.349 34.349 0 0 1 116.876 42.947 A 45.367 45.367 0 0 1 122.6 42.6 Z M 239.2 76.2 L 225.2 76.2 L 225.2 30.3 L 218.7 30.3 L 218.7 19.8 L 225.2 19.8 L 225.2 17.7 A 25.203 25.203 0 0 1 225.776 12.163 A 17.463 17.463 0 0 1 229.05 5.1 Q 232.558 0.635 239.76 0.239 A 26.186 26.186 0 0 1 241.2 0.2 A 27.981 27.981 0 0 1 245.865 0.57 A 20.584 20.584 0 0 1 250.5 1.9 L 249.8 11.8 Q 247.4 11.1 244.9 11.1 Q 241.9 11.1 240.55 12.8 A 5.662 5.662 0 0 0 239.592 14.665 Q 239.2 15.929 239.2 17.6 L 239.2 19.8 L 249.8 19.8 L 248.5 30.3 L 239.2 30.3 L 239.2 76.2 Z M 14.7 76.2 L 0 76.2 L 0 1.2 L 14.7 1.2 L 14.7 76.2 Z M 366.8 76.2 L 352.1 76.2 L 352.1 1.2 L 366.8 1.2 L 366.8 76.2 Z M 212 76.2 L 198 76.2 L 198 21.2 L 212 19.5 L 212 76.2 Z M 319 20.7 L 318.1 15.9 L 317.3 20.8 L 311.8 50.3 L 324.8 50.3 L 319 20.7 Z M 169.6 72.9 L 159.3 71.9 A 3.956 3.956 0 0 1 159.069 71.894 Q 158.848 71.881 158.709 71.841 A 0.63 0.63 0 0 1 158.6 71.8 Q 156.8 73.8 156.8 76.4 A 6.233 6.233 0 0 0 157.158 78.568 Q 157.82 80.363 159.7 81.4 A 11.901 11.901 0 0 0 162.742 82.542 Q 164.143 82.871 165.782 82.964 A 23.361 23.361 0 0 0 167.1 83 A 32.315 32.315 0 0 0 169.915 82.886 Q 172.686 82.643 174.509 81.882 A 9.014 9.014 0 0 0 174.7 81.8 A 5.858 5.858 0 0 0 176.001 81.025 A 3.58 3.58 0 0 0 177.4 78.1 A 4.955 4.955 0 0 0 177.163 76.53 A 3.97 3.97 0 0 0 175.7 74.55 Q 174.329 73.542 171.2 73.086 A 30.001 30.001 0 0 0 169.6 72.9 Z M 211.4 14.1 L 198.6 14.1 L 198.6 0.8 L 211.4 0.8 L 211.4 14.1 Z M 166.7 46.3 A 5.136 5.136 0 0 0 170.71 44.518 A 6.963 6.963 0 0 0 171.3 43.75 Q 172.722 41.617 172.955 38.33 A 18.85 18.85 0 0 0 173 37 Q 173 32.7 171.3 30.15 Q 169.601 27.602 166.704 27.6 A 3.939 3.939 0 0 0 166.7 27.6 A 5.136 5.136 0 0 0 162.69 29.382 A 6.963 6.963 0 0 0 162.1 30.15 Q 160.678 32.283 160.445 35.57 A 18.85 18.85 0 0 0 160.4 36.9 A 17.152 17.152 0 0 0 160.607 39.649 Q 160.841 41.091 161.341 42.266 A 8.483 8.483 0 0 0 162.15 43.75 A 6.56 6.56 0 0 0 163.51 45.228 A 5.038 5.038 0 0 0 166.7 46.3 Z M 122.6 60.2 L 122.6 50.1 Q 117.4 50.1 114.55 52.75 Q 111.7 55.4 111.7 59.4 A 11.6 11.6 0 0 0 111.874 61.473 Q 112.185 63.183 113.05 64.4 A 4.387 4.387 0 0 0 116.125 66.232 A 6.689 6.689 0 0 0 117.1 66.3 A 5.939 5.939 0 0 0 118.95 66.025 A 4.816 4.816 0 0 0 121.1 64.6 Q 122.6 62.9 122.6 60.2 Z" vector-effect="non-scaling-stroke"/></g></svg>